<svg width="178" height="33" viewBox="0 0 178 33" fill="none" xmlns="http://www.w3.org/2000/svg">
<path d="M39.6811 5.92647H43.1829L48.3392 20.6645L53.4954 5.92647H56.9972L49.7454 26H46.9329L39.6811 5.92647ZM37.7923 5.92647H41.2803L41.9145 20.2923V26H37.7923V5.92647ZM55.398 5.92647H58.8998V26H54.7638V20.2923L55.398 5.92647ZM68.329 22.636V15.9908C68.329 15.5129 68.2509 15.1039 68.0947 14.7638C67.9384 14.4145 67.6948 14.1434 67.364 13.9504C67.0423 13.7574 66.6241 13.6608 66.1094 13.6608C65.6682 13.6608 65.2868 13.739 64.9651 13.8952C64.6434 14.0423 64.3952 14.2583 64.2206 14.5432C64.046 14.8189 63.9586 15.1452 63.9586 15.5221H59.988C59.988 14.8879 60.1351 14.2858 60.4292 13.716C60.7233 13.1461 61.1507 12.6452 61.7114 12.2132C62.2721 11.7721 62.9384 11.4274 63.7105 11.1792C64.4917 10.9311 65.3649 10.807 66.33 10.807C67.488 10.807 68.5175 11 69.4182 11.386C70.3189 11.7721 71.0266 12.3511 71.5414 13.1232C72.0653 13.8952 72.3272 14.8603 72.3272 16.0184V22.4017C72.3272 23.2197 72.3778 23.8906 72.4789 24.4145C72.58 24.9292 72.727 25.3796 72.92 25.7656V26H68.9081C68.7151 25.5956 68.568 25.0901 68.4669 24.4835C68.375 23.8676 68.329 23.2518 68.329 22.636ZM68.8529 16.9145L68.8805 19.1618H66.6608C66.1369 19.1618 65.682 19.2215 65.296 19.341C64.9099 19.4605 64.5928 19.6305 64.3447 19.8511C64.0965 20.0625 63.9127 20.3107 63.7932 20.5956C63.6829 20.8805 63.6278 21.193 63.6278 21.5331C63.6278 21.8732 63.7059 22.1811 63.8621 22.4568C64.0184 22.7233 64.2436 22.9347 64.5377 23.091C64.8318 23.2381 65.1765 23.3116 65.5717 23.3116C66.1691 23.3116 66.6884 23.1921 67.1296 22.9531C67.5708 22.7142 67.9108 22.42 68.1498 22.0708C68.398 21.7215 68.5266 21.3906 68.5358 21.0781L69.5836 22.7601C69.4366 23.1369 69.2344 23.5276 68.977 23.932C68.7289 24.3364 68.4118 24.7178 68.0257 25.0763C67.6397 25.4256 67.1755 25.7151 66.6333 25.9449C66.091 26.1654 65.4476 26.2757 64.7031 26.2757C63.7564 26.2757 62.8971 26.0873 62.125 25.7105C61.3621 25.3244 60.7555 24.796 60.3051 24.125C59.864 23.4449 59.6434 22.6728 59.6434 21.8088C59.6434 21.0276 59.7904 20.3336 60.0846 19.727C60.3787 19.1204 60.8107 18.6103 61.3805 18.1967C61.9596 17.7739 62.6811 17.4568 63.545 17.2454C64.409 17.0248 65.4108 16.9145 66.5505 16.9145H68.8529ZM77.3584 14.3364V26H73.3879V11.0827H77.1241L77.3584 14.3364ZM81.8529 10.9862L81.784 14.6673C81.591 14.6397 81.3566 14.6167 81.0809 14.5983C80.8143 14.5708 80.5708 14.557 80.3502 14.557C79.7895 14.557 79.3024 14.6305 78.8888 14.7776C78.4844 14.9154 78.1443 15.1222 77.8686 15.398C77.602 15.6737 77.3998 16.0092 77.2619 16.4044C77.1333 16.7996 77.0597 17.25 77.0414 17.7555L76.2417 17.5074C76.2417 16.5423 76.3382 15.6553 76.5312 14.8465C76.7243 14.0285 77.0046 13.3162 77.3722 12.7096C77.7491 12.1029 78.2086 11.6342 78.7509 11.3033C79.2932 10.9724 79.9136 10.807 80.6121 10.807C80.8327 10.807 81.0579 10.8254 81.2877 10.8621C81.5175 10.8897 81.7059 10.9311 81.8529 10.9862ZM85.6985 4.80975V26H81.7279V4.80975H85.6985ZM95.1011 11.0827L88.6213 18.4724L85.147 21.9881L83.6994 19.1204L86.4568 15.6186L90.3309 11.0827H95.1011ZM90.9789 26L86.5671 19.1066L89.3107 16.7077L95.5561 26H90.9789ZM101.401 26.2757C100.243 26.2757 99.204 26.0919 98.2849 25.7243C97.3658 25.3474 96.5845 24.8281 95.9412 24.1664C95.307 23.5046 94.8198 22.7371 94.4798 21.864C94.1397 20.9816 93.9697 20.0441 93.9697 19.0515V18.5C93.9697 17.3695 94.1305 16.3355 94.4522 15.398C94.7739 14.4605 95.2334 13.6471 95.8309 12.9577C96.4375 12.2684 97.1728 11.7399 98.0368 11.3722C98.9007 10.9954 99.875 10.807 100.96 10.807C102.017 10.807 102.954 10.9816 103.772 11.3309C104.59 11.6801 105.275 12.1765 105.826 12.8199C106.387 13.4632 106.81 14.2353 107.095 15.136C107.38 16.0276 107.522 17.0202 107.522 18.114V19.7684H95.6654V17.1213H103.62V16.818C103.62 16.2665 103.519 15.7748 103.317 15.3428C103.124 14.9017 102.83 14.5524 102.435 14.295C102.04 14.0377 101.534 13.909 100.918 13.909C100.394 13.909 99.9439 14.0239 99.5671 14.2537C99.1902 14.4835 98.8823 14.8051 98.6434 15.2188C98.4136 15.6324 98.239 16.1195 98.1195 16.6801C98.0092 17.2316 97.954 17.8382 97.954 18.5V19.0515C97.954 19.6489 98.0368 20.2004 98.2022 20.7059C98.3768 21.2114 98.6204 21.648 98.9329 22.0156C99.2546 22.3833 99.6406 22.6682 100.091 22.8704C100.551 23.0726 101.07 23.1737 101.649 23.1737C102.366 23.1737 103.032 23.0358 103.648 22.7601C104.273 22.4752 104.811 22.0478 105.261 21.4779L107.191 23.5735C106.879 24.0239 106.451 24.4559 105.909 24.8695C105.376 25.2831 104.733 25.6232 103.979 25.8897C103.225 26.1471 102.366 26.2757 101.401 26.2757ZM115.09 11.0827V13.8952H106.404V11.0827H115.09ZM108.555 7.40166H112.526V21.5055C112.526 21.9375 112.581 22.2684 112.691 22.4982C112.811 22.7279 112.985 22.8888 113.215 22.9807C113.445 23.0634 113.734 23.1048 114.084 23.1048C114.332 23.1048 114.552 23.0956 114.745 23.0772C114.948 23.0496 115.118 23.0221 115.256 22.9945L115.269 25.9173C114.929 26.0276 114.562 26.1149 114.166 26.1792C113.771 26.2436 113.335 26.2757 112.857 26.2757C111.983 26.2757 111.221 26.1333 110.568 25.8483C109.925 25.5542 109.428 25.0855 109.079 24.4421C108.73 23.7987 108.555 22.9531 108.555 21.9053V7.40166ZM123.416 18.8447H118.301V15.6186H123.416C124.207 15.6186 124.85 15.4899 125.346 15.2325C125.843 14.966 126.206 14.5983 126.436 14.1296C126.665 13.6608 126.78 13.1324 126.78 12.5441C126.78 11.9467 126.665 11.3906 126.436 10.8759C126.206 10.3612 125.843 9.94761 125.346 9.63511C124.85 9.32261 124.207 9.16636 123.416 9.16636H119.735V26H115.599V5.92647H123.416C124.988 5.92647 126.335 6.2114 127.456 6.78125C128.586 7.34191 129.45 8.11857 130.048 9.11122C130.645 10.1039 130.944 11.239 130.944 12.5165C130.944 13.8125 130.645 14.9338 130.048 15.8805C129.45 16.8272 128.586 17.5579 127.456 18.0726C126.335 18.5873 124.988 18.8447 123.416 18.8447ZM140.373 22.4292V11.0827H144.344V26H140.608L140.373 22.4292ZM140.814 19.3686L141.986 19.341C141.986 20.3336 141.871 21.2574 141.642 22.1121C141.412 22.9577 141.067 23.693 140.608 24.318C140.148 24.9338 139.569 25.4164 138.87 25.7656C138.172 26.1057 137.349 26.2757 136.403 26.2757C135.676 26.2757 135.006 26.1746 134.39 25.9724C133.783 25.761 133.259 25.4347 132.818 24.9936C132.386 24.5432 132.046 23.9688 131.798 23.2702C131.559 22.5625 131.439 21.7123 131.439 20.7197V11.0827H135.41V20.7472C135.41 21.1884 135.46 21.5607 135.562 21.864C135.672 22.1673 135.824 22.4154 136.017 22.6085C136.21 22.8015 136.435 22.9393 136.692 23.0221C136.959 23.1048 137.253 23.1461 137.574 23.1461C138.392 23.1461 139.036 22.9807 139.505 22.6498C139.983 22.3189 140.318 21.8686 140.511 21.2987C140.713 20.7197 140.814 20.0763 140.814 19.3686ZM149.568 4.82353V26H145.584V4.82353H149.568ZM158.915 21.8778C158.915 21.5928 158.832 21.3355 158.666 21.1057C158.501 20.8759 158.193 20.6645 157.743 20.4715C157.301 20.2693 156.663 20.0855 155.826 19.92C155.073 19.7546 154.369 19.5478 153.717 19.2996C153.074 19.0423 152.513 18.7344 152.035 18.3759C151.566 18.0175 151.199 17.5947 150.932 17.1075C150.665 16.6112 150.532 16.046 150.532 15.4118C150.532 14.7868 150.665 14.1985 150.932 13.6471C151.208 13.0956 151.598 12.6085 152.104 12.1857C152.619 11.7537 153.244 11.4182 153.979 11.1792C154.723 10.9311 155.56 10.807 156.488 10.807C157.784 10.807 158.896 11.0138 159.824 11.4274C160.762 11.841 161.479 12.4108 161.975 13.137C162.481 13.8539 162.733 14.6719 162.733 15.591H158.763C158.763 15.205 158.68 14.8603 158.515 14.557C158.358 14.2445 158.11 14.0009 157.77 13.8263C157.439 13.6425 157.007 13.5506 156.474 13.5506C156.033 13.5506 155.652 13.6287 155.33 13.7849C155.008 13.932 154.76 14.1342 154.585 14.3915C154.42 14.6397 154.337 14.9154 154.337 15.2188C154.337 15.4485 154.383 15.6553 154.475 15.8392C154.576 16.0138 154.737 16.1746 154.958 16.3217C155.178 16.4688 155.463 16.6066 155.812 16.7353C156.171 16.8548 156.612 16.9651 157.136 17.0662C158.211 17.2868 159.172 17.5763 160.017 17.9347C160.863 18.284 161.534 18.7619 162.03 19.3686C162.527 19.966 162.775 20.7518 162.775 21.7261C162.775 22.3879 162.628 22.9945 162.334 23.546C162.04 24.0974 161.617 24.58 161.065 24.9936C160.514 25.398 159.852 25.7151 159.08 25.9449C158.317 26.1654 157.458 26.2757 156.502 26.2757C155.114 26.2757 153.937 26.0276 152.972 25.5313C152.017 25.0349 151.29 24.4053 150.794 23.6425C150.307 22.8704 150.063 22.08 150.063 21.2711H153.827C153.846 21.8134 153.983 22.25 154.241 22.5809C154.507 22.9118 154.843 23.1507 155.247 23.2978C155.661 23.4449 156.107 23.5184 156.585 23.5184C157.099 23.5184 157.527 23.4494 157.867 23.3116C158.207 23.1645 158.464 22.9715 158.639 22.7325C158.823 22.4844 158.915 22.1994 158.915 21.8778ZM170.219 26.2757C169.061 26.2757 168.022 26.0919 167.103 25.7243C166.184 25.3474 165.403 24.8281 164.759 24.1664C164.125 23.5046 163.638 22.7371 163.298 21.864C162.958 20.9816 162.788 20.0441 162.788 19.0515V18.5C162.788 17.3695 162.949 16.3355 163.27 15.398C163.592 14.4605 164.051 13.6471 164.649 12.9577C165.255 12.2684 165.991 11.7399 166.855 11.3722C167.719 10.9954 168.693 10.807 169.778 10.807C170.835 10.807 171.772 10.9816 172.59 11.3309C173.408 11.6801 174.093 12.1765 174.644 12.8199C175.205 13.4632 175.628 14.2353 175.913 15.136C176.198 16.0276 176.34 17.0202 176.34 18.114V19.7684H164.483V17.1213H172.438V16.818C172.438 16.2665 172.337 15.7748 172.135 15.3428C171.942 14.9017 171.648 14.5524 171.253 14.295C170.858 14.0377 170.352 13.909 169.736 13.909C169.212 13.909 168.762 14.0239 168.385 14.2537C168.008 14.4835 167.7 14.8051 167.461 15.2188C167.232 15.6324 167.057 16.1195 166.937 16.6801C166.827 17.2316 166.772 17.8382 166.772 18.5V19.0515C166.772 19.6489 166.855 20.2004 167.02 20.7059C167.195 21.2114 167.438 21.648 167.751 22.0156C168.073 22.3833 168.459 22.6682 168.909 22.8704C169.369 23.0726 169.888 23.1737 170.467 23.1737C171.184 23.1737 171.85 23.0358 172.466 22.7601C173.091 22.4752 173.629 22.0478 174.079 21.4779L176.009 23.5735C175.697 24.0239 175.269 24.4559 174.727 24.8695C174.194 25.2831 173.551 25.6232 172.797 25.8897C172.043 26.1471 171.184 26.2757 170.219 26.2757Z" fill="white"/>
<path d="M16.5192 15.6362C17.1807 16.0221 17.1807 16.9779 16.5192 17.3638L1.50387 26.1227C0.837213 26.5116 -8.75572e-07 26.0308 -8.41836e-07 25.259L-7.61032e-08 7.74104C-4.23671e-08 6.96925 0.837213 6.48837 1.50387 6.87726L9 11.25L16.5192 15.6362Z" fill="#3461FF"/>
<circle cx="18.5" cy="16" r="9.5" fill="#3461FF"/>
</svg>
